<?xml version="1.0" standalone="no"?>
<!DOCTYPE svg PUBLIC "-//W3C//DTD SVG 1.1//EN" "http://www.w3.org/Graphics/SVG/1.1/DTD/svg11.dtd" >
<svg xmlns="http://www.w3.org/2000/svg" xmlns:xlink="http://www.w3.org/1999/xlink" version="1.1">
<metadata>
Created by FontForge 20170731 at Tue May 23 02:43:24 2017
 By Aleksey,,,
weknow (c) (weknow.deviantart.com). 2012. All Rights Reserved
</metadata>
<defs>
<font id="JUSTDOGOOD" horiz-adv-x="1139" >
  <font-face 
    font-family="JUST DO GOOD"
    font-weight="400"
    font-stretch="normal"
    units-per-em="2048"
    panose-1="2 0 0 0 0 0 0 0 0 0"
    ascent="1638"
    descent="-410"
    x-height="924"
    cap-height="1344"
    bbox="50 -420 2234 1596"
    underline-thickness="150"
    underline-position="-442"
    unicode-range="U+0020-F005"
  />
<missing-glyph horiz-adv-x="1124" 
d="M50 0v1280h1024v-1280h-1024zM82 32h960v1216h-960v-1216z" />
    <glyph glyph-name=".notdef" horiz-adv-x="1124" 
d="M50 0v1280h1024v-1280h-1024zM82 32h960v1216h-960v-1216z" />
    <glyph glyph-name=".null" horiz-adv-x="0" 
 />
    <glyph glyph-name="nonmarkingreturn" horiz-adv-x="569" 
 />
    <glyph glyph-name="space" unicode=" " horiz-adv-x="569" 
 />
    <glyph glyph-name="space" unicode="&#xa0;" horiz-adv-x="569" 
 />
    <glyph glyph-name="exclam" unicode="!" horiz-adv-x="604" 
d="M58 1344h488l8 -8v-744l-8 -8h-488l-8 8v744zM282 480h40q147 0 224 -168l8 -60v-32q0 -126 -148 -204q-44 -16 -72 -16h-64q-126 0 -204 148q-16 44 -16 72v32q0 127 136 204q45 24 96 24z" />
    <glyph glyph-name="quotedbl" unicode="&#x22;" horiz-adv-x="1212" 
d="M270 1344h64q123 0 200 -140q16 -25 24 -96q0 -89 -116 -264q-48 -89 -56 -92h-288v8l76 136h-4q-120 81 -120 196v32q0 126 148 204q44 16 72 16zM878 1344h64q126 0 204 -148q16 -44 16 -72v-32q0 -70 -84 -200q-73 -131 -88 -140h-284l76 144h-4q-124 80 -124 212
q0 150 164 224q32 12 60 12z" />
    <glyph glyph-name="numbersign" unicode="#" horiz-adv-x="1780" 
d="M310 1344h492l8 -8v-284h160v284l8 8h492l8 -8v-284h244l8 -8v-240l-8 -8h-244v-248h244l8 -8v-240l-8 -8h-244v-284l-8 -8h-492l-8 8v284h-160v-284l-8 -8h-492l-8 8v284h-244l-8 8v240l8 8h244v248h-244l-8 8v240l8 8h244v284zM810 796v-248h160v248h-160z" />
    <glyph glyph-name="dollar" unicode="$" horiz-adv-x="1376" 
d="M570 1590h236l8 -8v-240q324 0 500 -248l12 -12l-460 -148q-38 96 -52 96v-236q156 0 344 -108q168 -127 168 -268v-36q0 -191 -260 -320q-162 -60 -252 -60v-240l-8 -8h-236l-8 8v240h-12q-357 0 -500 260l468 148q14 -69 40 -104h4v244q-156 0 -344 108
q-168 127 -168 268v28q0 210 272 332q87 40 240 56v240zM518 942q0 -58 44 -96v200q-44 -46 -44 -104zM814 502v-208q40 41 40 100v12q0 57 -40 96z" />
    <glyph glyph-name="percent" unicode="%" horiz-adv-x="1280" 
d="M270 1344h64q141 0 216 -176l8 -60q0 -161 -168 -232q-32 -12 -68 -12h-40q-147 0 -224 168l-8 60v32q0 126 148 204q44 16 72 16zM1090 1344q-381 -837 -624 -1344h-276q280 620 624 1344h276zM230 1104q16 -148 72 -148q58 0 72 148q-12 148 -72 148q-57 0 -72 -148z
M958 480h40q147 0 224 -168l8 -60v-32q0 -126 -148 -204q-44 -16 -72 -16h-64q-141 0 -216 176l-8 60q0 161 168 232q32 12 68 12zM906 240q13 -148 72 -148q57 0 72 148q-16 148 -72 148q-58 0 -72 -148z" />
    <glyph glyph-name="ampersand" unicode="&#x26;" horiz-adv-x="1580" 
d="M690 1344h60q365 0 536 -240q44 -85 44 -160q0 -236 -320 -356l-88 -24l180 -168l24 72q400 -197 404 -208q-40 -74 -124 -144v-4l112 -108v-4h-888q-369 0 -536 240q-44 73 -44 140v36q0 148 180 280q-79 57 -116 172l-12 76q0 194 228 320q153 80 360 80zM574 940
q0 -69 96 -140q139 0 184 104l4 32v20q-34 132 -128 132h-28q-77 0 -120 -104q-8 -16 -8 -44zM522 420v-24q0 -106 108 -140h92l-192 172z" />
    <glyph glyph-name="quotesingle" unicode="'" horiz-adv-x="608" 
d="M270 1344h64q123 0 200 -140q16 -25 24 -96q0 -89 -116 -264q-48 -89 -56 -92h-288v8l76 136h-4q-120 81 -120 196v32q0 126 148 204q44 16 72 16z" />
    <glyph glyph-name="parenleft" unicode="(" horiz-adv-x="852" 
d="M774 1596h20l8 -8v-240q0 -7 -48 -16q-81 -53 -124 -216q-52 -205 -52 -440q0 -491 164 -656l60 -24v-240l-8 -8h-20q-305 0 -524 272q-200 288 -200 608v84q0 349 216 636q217 248 508 248z" />
    <glyph glyph-name="parenright" unicode=")" horiz-adv-x="852" 
d="M586 1348q216 -287 216 -636v-84q0 -320 -200 -608q-219 -272 -524 -272h-20l-8 8v240l60 24q164 165 164 656q0 235 -52 440q-43 163 -124 216q-48 9 -48 16v240l8 8h20q291 0 508 -248z" />
    <glyph glyph-name="asterisk" unicode="*" horiz-adv-x="716" 
d="M238 1344h240l8 -8v-104h172l8 -8v-240l-8 -8h-36v-4l44 -104l-4 -4h-244q-14 10 -48 104h-4l-68 -104h-240l-8 8q7 0 60 104h-52l-8 8v240l8 8h172v104z" />
    <glyph glyph-name="plus" unicode="+" horiz-adv-x="856" 
d="M310 1050h240l8 -8v-240h240l8 -8v-240l-8 -8h-240v-244l-8 -8h-240l-8 8v244h-244l-8 8v240l8 8h244v240z" />
    <glyph glyph-name="comma" unicode="," horiz-adv-x="604" 
d="M270 480h64q117 0 196 -132q24 -49 24 -88v-32q0 -79 -124 -264q-37 -76 -44 -76h-288v8l76 136h-4q-120 81 -120 196v32q0 117 132 196q49 24 88 24z" />
    <glyph glyph-name="hyphen" unicode="-" horiz-adv-x="856" 
d="M58 672h740l8 -8v-236l-8 -8h-740l-8 8v236z" />
    <glyph glyph-name="hyphen" unicode="&#xad;" horiz-adv-x="856" 
d="M58 672h740l8 -8v-236l-8 -8h-740l-8 8v236z" />
    <glyph glyph-name="period" unicode="." horiz-adv-x="604" 
d="M270 480h64q128 0 204 -152q16 -33 16 -68v-40q0 -115 -132 -196q-49 -24 -88 -24h-64q-128 0 -204 152q-16 33 -16 68v40q0 115 132 196q49 24 88 24z" />
    <glyph glyph-name="slash" unicode="/" horiz-adv-x="1000" 
d="M674 1344h268l4 -4h4q-612 -1326 -624 -1340h-268l-4 4h-4q614 1330 624 1340z" />
    <glyph glyph-name="zero" unicode="0" horiz-adv-x="1516" 
d="M686 1344h144q237 0 464 -220q172 -213 172 -416v-72q0 -239 -220 -464q-214 -172 -416 -172h-144q-237 0 -464 220q-172 213 -172 416v72q0 239 220 464q214 172 416 172zM558 704v-64q0 -219 120 -352q37 -32 68 -32h24q106 0 172 244q16 80 16 140v64q0 219 -120 352
q-37 32 -68 32h-24q-106 0 -172 -244q-16 -79 -16 -140z" />
    <glyph glyph-name="one" unicode="1" horiz-adv-x="808" 
d="M258 1344h492l8 -8v-1328l-8 -8h-492l-8 8v932l-196 -8l-4 4v244q0 9 88 20q77 36 104 108q7 36 16 36z" />
    <glyph glyph-name="two" unicode="2" horiz-adv-x="1376" 
d="M634 1344h108q375 0 540 -240q44 -73 44 -140v-36q0 -202 -288 -332q-175 -56 -388 -56q-96 -27 -96 -176v-112h764l8 -8v-236l-8 -8h-1260l-8 8v408q0 202 288 332q151 52 352 52q168 26 168 140q0 108 -116 148h-52q-132 0 -180 -156l-456 144v8q142 170 212 192
q114 68 368 68z" />
    <glyph glyph-name="three" unicode="3" horiz-adv-x="1376" 
d="M634 1344h108q375 0 540 -240q44 -73 44 -140v-36q0 -134 -148 -256q148 -127 148 -264v-20q0 -207 -284 -336q-150 -52 -296 -52h-116q-378 0 -488 144q-53 51 -92 116q0 9 216 72l252 80q0 -131 160 -156h56q100 0 120 144q0 100 -96 136q-20 8 -72 8h-20l-8 8v240
l104 24q96 41 96 124q0 108 -116 148h-52q-132 0 -180 -156l-456 144v8q142 170 212 192q114 68 368 68z" />
    <glyph glyph-name="four" unicode="4" horiz-adv-x="1276" 
d="M58 1344h492l8 -8v-536h160v536l8 8h492l8 -8v-1328l-8 -8h-492l-8 8v536h-660l-8 8v784z" />
    <glyph glyph-name="five" unicode="5" horiz-adv-x="1376" 
d="M58 1344h1260l8 -8v-236l-8 -8h-760v-292h92q480 0 620 -228q56 -75 56 -156v-36q0 -183 -252 -316q-157 -64 -332 -64h-112q-387 0 -500 156q-38 38 -80 104q0 9 216 72l252 80q0 -106 116 -148l52 -8h48q99 0 120 140v8q0 96 -96 132q-20 8 -72 8h-628l-8 8v784z" />
    <glyph glyph-name="six" unicode="6" horiz-adv-x="1444" 
d="M630 1344h180q369 0 496 -168q84 -77 84 -100l-456 -144q-42 160 -212 160h-12q-113 0 -152 -120l-4 -20l4 -64v-88h436q255 0 376 -260q24 -61 24 -128v-32q0 -214 -236 -348q-81 -32 -144 -32h-584q-214 0 -348 236q-32 81 -32 144v584q0 179 244 312q161 68 336 68z
M558 416v-24q0 -97 112 -136l52 -4q126 0 160 108l4 32v24q-25 128 -152 128h-24q-127 0 -152 -128z" />
    <glyph glyph-name="seven" unicode="7" horiz-adv-x="1280" 
d="M58 1344h1164l8 -8l-336 -1336h-508v4l268 1088h-596l-8 8v236z" />
    <glyph glyph-name="eight" unicode="8" horiz-adv-x="1444" 
d="M430 1344h584q214 0 348 -236q32 -81 32 -144v-32q0 -135 -104 -260q104 -125 104 -260v-32q0 -214 -236 -348q-81 -32 -144 -32h-584q-214 0 -348 236q-32 81 -32 144v32q0 135 104 260q-104 125 -104 260v32q0 214 236 348q81 32 144 32zM558 952v-24q25 -128 152 -128
h24q127 0 152 128v24q0 94 -104 132l-32 4h-56q-94 0 -132 -104zM558 416v-24q0 -97 112 -136l52 -4q126 0 160 108l4 32v24q-25 128 -152 128h-24q-127 0 -152 -128z" />
    <glyph glyph-name="nine" unicode="9" horiz-adv-x="1444" 
d="M430 1344h584q214 0 348 -236q32 -81 32 -144v-572q0 -239 -340 -360q-128 -32 -240 -32h-180q-369 0 -496 168q-84 77 -84 100l456 144q42 -160 212 -160h12q113 0 152 120l4 20l-4 64v88h-436q-254 0 -376 260q-24 61 -24 128v32q0 214 236 348q81 32 144 32zM558 952
v-24q25 -128 152 -128h24q127 0 152 128v24q0 97 -112 136l-52 4q-126 0 -160 -108z" />
    <glyph glyph-name="colon" unicode=":" horiz-adv-x="604" 
d="M270 1164h64q116 0 196 -132q24 -49 24 -88v-32q0 -132 -144 -208q-41 -20 -100 -20h-16q-168 0 -236 172l-8 56v32q0 126 148 204q44 16 72 16zM302 664q179 0 244 -176l8 -48v-32q0 -139 -156 -212q-33 -16 -88 -16h-16q-171 0 -236 176q-8 18 -8 52v32q0 138 168 212z
" />
    <glyph glyph-name="semicolon" unicode=";" horiz-adv-x="604" 
d="M270 1164h64q116 0 196 -132q24 -49 24 -88v-32q0 -132 -144 -208q-41 -20 -100 -20h-16q-168 0 -236 172l-8 56v32q0 126 148 204q44 16 72 16zM302 664q179 0 244 -176l8 -48v-32q0 -79 -124 -264q-37 -76 -44 -76h-288v8l76 136h-4q-120 81 -120 196v32q0 138 168 212
z" />
    <glyph glyph-name="semicolon" unicode="&#x37e;" horiz-adv-x="604" 
d="M270 1164h64q116 0 196 -132q24 -49 24 -88v-32q0 -132 -144 -208q-41 -20 -100 -20h-16q-168 0 -236 172l-8 56v32q0 126 148 204q44 16 72 16zM302 664q179 0 244 -176l8 -48v-32q0 -79 -124 -264q-37 -76 -44 -76h-288v8l76 136h-4q-120 81 -120 196v32q0 138 168 212
z" />
    <glyph glyph-name="less" unicode="&#x3c;" horiz-adv-x="688" 
d="M630 1344l8 -8l-308 -664l308 -668l-4 -4h-268q-26 29 -164 344q-145 299 -152 332l312 668h268z" />
    <glyph glyph-name="equal" unicode="=" horiz-adv-x="856" 
d="M58 1052h740l8 -8v-236l-8 -8h-740l-8 8v236zM58 552h740l8 -8v-240l-8 -8h-740l-8 8v240z" />
    <glyph glyph-name="greater" unicode="&#x3e;" horiz-adv-x="688" 
d="M50 1340l4 4h268q26 -29 164 -344q145 -299 152 -332l-312 -668h-268l-8 8l308 664z" />
    <glyph glyph-name="question" unicode="?" horiz-adv-x="1372" 
d="M630 1344h108q375 0 540 -240q44 -73 44 -140v-36q0 -201 -288 -332q-96 -23 -96 -36q0 -16 -8 -16h-492l-8 8v116q0 119 140 132h76q160 1 200 96l8 36v8q0 107 -116 148h-52q-132 0 -180 -156l-456 144q2 27 140 156q132 112 440 112zM674 480h20q179 0 240 -192l4 -56
q0 -151 -172 -224l-56 -8h-52q-158 0 -224 192l-4 48q0 173 192 236z" />
    <glyph glyph-name="at" unicode="@" horiz-adv-x="2056" 
d="M606 1344h1392l8 -8v-964l-8 -8h-1048q-122 0 -160 100l-8 48v320q0 115 128 144l40 4h316l8 -8v-512h172v700h-616q-182 0 -216 -124q-12 -24 -12 -76v-576q0 -147 132 -192q36 -8 96 -8h1168l8 -8v-168l-8 -8h-1392q-268 0 -468 268q-88 154 -88 288v232q0 268 268 468
q155 88 288 88zM970 844v-344q0 -40 60 -40h56v424h-68q-48 -4 -48 -40z" />
    <glyph glyph-name="A" unicode="A" horiz-adv-x="1428" 
d="M1182 1344q12 0 76 -500l120 -840l-4 -4h-500q-12 0 -48 304q-17 116 -24 116h-176q-10 0 -36 -228l-32 -192h-500l-8 8q184 1315 192 1336h940zM710 1064v-4l-52 -388h112v4l-52 388h-8z" />
    <glyph glyph-name="B" unicode="B" horiz-adv-x="1444" 
d="M58 1344h844q186 0 292 -192q32 -61 32 -132v-24q0 -119 -92 -220v-4q143 -49 224 -200q36 -86 36 -160v-32q0 -214 -236 -348q-81 -32 -144 -32h-956l-8 8v1328zM550 1096v-300h204q105 0 136 104v80q0 91 -132 116h-208zM554 548v-296h224q73 0 112 100v72
q0 87 -96 120l-40 4h-200z" />
    <glyph glyph-name="C" unicode="C" horiz-adv-x="1460" 
d="M718 1344h80q256 0 480 -204q96 -102 132 -192q-58 -24 -468 -112q0 83 -100 220q-47 32 -72 32h-24q-112 0 -176 -264q-12 -61 -12 -124v-56q0 -230 124 -360q35 -28 64 -28h24q102 0 168 228l4 24q426 -92 468 -112q-81 -188 -292 -312q-178 -84 -320 -84h-80
q-249 0 -480 200q-188 211 -188 432v80q0 241 216 456q222 176 452 176z" />
    <glyph glyph-name="D" unicode="D" horiz-adv-x="1516" 
d="M58 1344h772q237 0 464 -220q172 -213 172 -416v-72q0 -239 -220 -464q-214 -172 -416 -172h-772l-8 8v1328zM558 1092v-840q274 0 368 228q32 100 32 168v48q0 214 -176 344q-82 52 -224 52z" />
    <glyph glyph-name="E" unicode="E" horiz-adv-x="1276" 
d="M58 1344h1160l8 -8v-236l-8 -8h-660v-292h200l8 -8v-240l-8 -8h-200v-292h660l8 -8v-236l-8 -8h-1160l-8 8v1328z" />
    <glyph glyph-name="F" unicode="F" horiz-adv-x="1276" 
d="M58 1344h1160l8 -8v-236l-8 -8h-660v-292h200l8 -8v-240l-8 -8h-200v-536l-8 -8h-492l-8 8v1328z" />
    <glyph glyph-name="G" unicode="G" horiz-adv-x="1500" 
d="M718 1344h80q245 0 476 -196q132 -154 132 -204q-435 -108 -464 -108q0 83 -100 220q-46 32 -72 32h-24q-112 0 -176 -264q-12 -67 -12 -120v-64q0 -224 124 -356q35 -28 64 -28h16q180 10 180 32v132h-200l-8 8v240l8 8h700l8 -8v-660l-8 -8h-492q-8 0 -8 20
q-86 -20 -144 -20h-80q-249 0 -480 200q-188 212 -188 432v80q0 241 216 456q222 176 452 176z" />
    <glyph glyph-name="H" unicode="H" horiz-adv-x="1276" 
d="M58 1344h492l8 -8v-536h160v536l8 8h492l8 -8v-1328l-8 -8h-492l-8 8v536h-160v-536l-8 -8h-492l-8 8v1328z" />
    <glyph glyph-name="I" unicode="I" horiz-adv-x="604" 
d="M58 1344h488l8 -8v-1328l-8 -8h-488l-8 8v1328z" />
    <glyph glyph-name="J" unicode="J" horiz-adv-x="1444" 
d="M898 1344h488l8 -8v-956q0 -214 -236 -348q-81 -32 -144 -32h-352q-256 0 -480 204q-96 102 -132 192q42 20 468 112q12 -97 88 -208q50 -44 84 -44h60q121 0 140 156v924z" />
    <glyph glyph-name="K" unicode="K" horiz-adv-x="1292" 
d="M58 1344h488l8 -8v-536h20l144 540l4 4h512l8 -8l-176 -664l176 -668l-4 -4h-512q-13 0 -40 128l-112 416h-20v-536l-8 -8h-488l-8 8v1328z" />
    <glyph glyph-name="L" unicode="L" horiz-adv-x="1276" 
d="M58 1344h492l8 -8v-1084h660l8 -8v-236l-8 -8h-1160l-8 8v1328z" />
    <glyph glyph-name="M" unicode="M" horiz-adv-x="2252" 
d="M958 1344q12 0 44 -256l124 -816h4l164 1072h712q12 0 76 -500l120 -840l-4 -4h-500q-12 0 -80 528l-76 536h-4l-156 -1064h-504q-10 0 -52 336l-108 756h-4q-72 -545 -156 -1092h-500l-8 8q184 1315 192 1336h716z" />
    <glyph glyph-name="N" unicode="N" horiz-adv-x="1276" 
d="M58 1344h496q115 -159 160 -236h4v228l8 8h492l8 -8v-1328l-8 -8h-492q-12 0 -48 284q-96 596 -116 760h-4v-1036l-8 -8h-492l-8 8v1328z" />
    <glyph glyph-name="O" unicode="O" horiz-adv-x="1516" 
d="M686 1344h144q237 0 464 -220q172 -213 172 -416v-72q0 -239 -220 -464q-214 -172 -416 -172h-144q-237 0 -464 220q-172 213 -172 416v72q0 239 220 464q214 172 416 172zM558 704v-64q0 -219 120 -352q37 -32 68 -32h24q106 0 172 244q16 80 16 140v64q0 219 -120 352
q-37 32 -68 32h-24q-106 0 -172 -244q-16 -79 -16 -140z" />
    <glyph glyph-name="P" unicode="P" horiz-adv-x="1444" 
d="M58 1344h956q214 0 348 -236q32 -81 32 -144v-32q0 -226 -236 -352q-76 -36 -164 -36h-440v-536l-8 -8h-488l-8 8v1328zM554 1092v-296h200q105 0 136 104v80q0 73 -100 112h-236z" />
    <glyph glyph-name="Q" unicode="Q" horiz-adv-x="1516" 
d="M686 1344h144q237 0 464 -220q172 -213 172 -416v-72q0 -222 -196 -440l192 -192v-4h-256l-92 80q-158 -80 -284 -80h-144q-237 0 -464 220q-172 213 -172 416v72q0 239 220 464q214 172 416 172zM558 704v-64q0 -219 120 -352q37 -32 68 -32h24q48 0 96 64
q-87 75 -152 144v4l136 140l96 -92l12 124v64q0 219 -120 352q-37 32 -68 32h-24q-110 0 -172 -252q-16 -61 -16 -132z" />
    <glyph glyph-name="R" unicode="R" horiz-adv-x="1444" 
d="M58 1344h956q214 0 348 -236q32 -81 32 -144v-32q0 -234 -252 -360l-64 -24l316 -544l-4 -4h-516q-19 19 -316 540h-4v-532l-8 -8h-488l-8 8v1328zM554 1092v-296h200q105 0 136 104v80q0 73 -100 112h-236z" />
    <glyph glyph-name="S" unicode="S" horiz-adv-x="1376" 
d="M634 1344h108q371 0 500 -172q57 -52 80 -88v-8l-456 -144q-48 156 -180 156h-40q-84 0 -124 -116l-4 -40q0 -136 284 -136q138 0 328 -92q196 -130 196 -288v-36q0 -183 -252 -316q-156 -64 -332 -64h-112q-368 0 -484 140q-64 67 -92 116v12l464 144q12 -76 44 -108
q57 -48 132 -48h40q98 0 120 136v12q0 109 -112 136q-537 0 -672 288q-20 68 -20 100v36q0 183 252 316q156 64 332 64z" />
    <glyph glyph-name="T" unicode="T" horiz-adv-x="1276" 
d="M58 1344h1160l8 -8v-236l-8 -8h-324v-1084l-8 -8h-496l-8 8v1084h-324l-8 8v236z" />
    <glyph glyph-name="U" unicode="U" horiz-adv-x="1276" 
d="M58 1344h492l8 -8v-964q16 -116 72 -116h16q57 0 72 116v964l8 8h492l8 -8v-956q0 -200 -212 -336q-89 -44 -176 -44h-400q-205 0 -336 200q-52 93 -52 180v956z" />
    <glyph glyph-name="V" unicode="V" horiz-adv-x="1428" 
d="M554 1344q12 0 80 -528l76 -536h8v4q144 1044 152 1060h500l8 -8q-184 -1315 -192 -1336h-940q-12 0 -76 500l-120 840l4 4h500z" />
    <glyph glyph-name="W" unicode="W" horiz-adv-x="2252" 
d="M554 1344q12 0 56 -360l104 -732h4l156 1092h504q13 0 52 -324l108 -740h4q68 516 152 1064h500l8 -8q-184 -1315 -192 -1336h-712q-10 0 -44 268l-124 804h-4q-140 -955 -164 -1072h-716q-12 0 -76 500l-120 840l4 4h500z" />
    <glyph glyph-name="X" unicode="X" horiz-adv-x="1436" 
d="M566 1344q13 0 48 -156q100 -357 100 -376h8l140 528l4 4h512l8 -8l-176 -668l176 -664l-4 -4h-512q-15 0 -76 264q-20 52 -72 268h-8l-140 -528l-4 -4h-512l-8 8l176 668l-176 664l4 4h512z" />
    <glyph glyph-name="Y" unicode="Y" horiz-adv-x="1280" 
d="M554 1344q12 0 60 -388q24 -132 24 -172h4q0 46 80 560h500l4 -4h4q-332 -754 -336 -776v-556l-8 -8h-492l-8 8v552q0 18 -164 388l-172 392l4 4h500z" />
    <glyph glyph-name="Z" unicode="Z" horiz-adv-x="1280" 
d="M58 1344h1168l-492 -1072l-8 -20h496l8 -8v-236l-8 -8h-1164l-4 4h-4l504 1088h-496l-8 8v236z" />
    <glyph glyph-name="bracketleft" unicode="[" horiz-adv-x="604" 
d="M58 1590h488l8 -8v-240l-8 -8h-244v-1324h244l8 -8v-240l-8 -8h-488l-8 8v1820z" />
    <glyph glyph-name="backslash" unicode="\" horiz-adv-x="1000" 
d="M950 4h-4l-4 -4h-268q-12 14 -624 1340h4l4 4h268q10 -10 624 -1340z" />
    <glyph glyph-name="bracketright" unicode="]" horiz-adv-x="604" 
d="M58 1590h488l8 -8v-1820l-8 -8h-488l-8 8v240l8 8h244v1324h-244l-8 8v240z" />
    <glyph glyph-name="asciicircum" unicode="^" horiz-adv-x="812" 
d="M406 1344l356 -356l-180 -180l-176 176l-180 -176l-176 180z" />
    <glyph glyph-name="underscore" unicode="_" horiz-adv-x="1780" 
d="M58 -88h1664l8 -8v-236l-8 -8h-1664l-8 8v236z" />
    <glyph glyph-name="grave" unicode="`" horiz-adv-x="808" 
d="M50 1340v4h352l356 -356l-176 -180z" />
    <glyph glyph-name="a" unicode="a" horiz-adv-x="1444" 
d="M430 924h956l8 -8v-908l-8 -8h-956q-214 0 -348 236q-32 81 -32 144v164q0 214 236 348q81 32 144 32zM558 560v-196q0 -71 96 -108h236v416h-172q-121 0 -152 -76z" />
    <glyph glyph-name="b" unicode="b" horiz-adv-x="1444" 
d="M58 1344h488l8 -8v-412h452q215 0 344 -216q44 -83 44 -164v-164q0 -214 -236 -348q-81 -32 -144 -32h-956l-8 8v1328zM554 668v-412h224q71 0 108 96v208q0 71 -96 108h-236z" />
    <glyph glyph-name="c" unicode="c" horiz-adv-x="1452" 
d="M726 924h60q391 0 608 -244l8 -16q-377 -104 -460 -120q-68 128 -184 128q-145 0 -200 -168l-4 -44q0 -137 144 -196l60 -12q76 0 140 64l504 -56q-109 -152 -312 -212q-153 -48 -304 -48h-60q-342 0 -564 196q-112 117 -112 248v36q0 240 324 380q178 64 352 64z" />
    <glyph glyph-name="d" unicode="d" horiz-adv-x="1444" 
d="M898 1344h488l8 -8v-1328l-8 -8h-956q-214 0 -348 236q-32 81 -32 144v164q0 205 216 336q80 44 172 44h452v412zM558 364q27 -108 108 -108h224v412h-224q-71 0 -108 -96v-208z" />
    <glyph glyph-name="e" unicode="e" horiz-adv-x="1460" 
d="M738 924h48q280 0 500 -140q124 -101 124 -132q-163 -256 -724 -256h-120q61 -144 192 -144q79 0 140 64l504 -52v-8q-109 -149 -312 -208q-147 -48 -304 -48h-48q-427 0 -632 264q-56 92 -56 180v36q0 244 336 384q168 60 352 60zM566 528h216q72 0 136 56
q-65 88 -160 88q-131 0 -192 -144z" />
    <glyph glyph-name="f" unicode="f" horiz-adv-x="940" 
d="M430 1344h452l8 -8v-236l-8 -8h-164q-108 0 -140 -56q-24 0 -24 -200v-160h204l8 -8v-240l-8 -8h-204v-412l-8 -8h-488l-8 8v956q0 214 236 348q81 32 144 32z" />
    <glyph glyph-name="g" unicode="g" horiz-adv-x="1456" 
d="M730 924h48l84 -4l108 4h428l8 -8v-956q0 -199 -212 -336q-89 -44 -176 -44h-508q-230 0 -452 176l-4 4v12l276 140q71 -76 204 -76h236q86 0 128 116v56q-48 -8 -132 -8h-16q-546 18 -680 340q-20 45 -20 104v36q0 244 336 384q173 60 344 60zM558 448q0 -120 140 -184
l48 -8h24q74 0 128 60v300q-75 56 -136 56q-152 0 -204 -176v-48z" />
    <glyph glyph-name="h" unicode="h" horiz-adv-x="1444" 
d="M58 1344h488l8 -8v-412h452q215 0 344 -216q44 -83 44 -164v-536l-8 -8h-492l-8 8v552q0 71 -96 108h-236v-660l-8 -8h-488l-8 8v1328z" />
    <glyph glyph-name="i" unicode="i" horiz-adv-x="604" 
d="M270 1344h64q126 0 204 -148q16 -44 16 -72v-32q0 -127 -136 -204q-45 -24 -96 -24h-40q-147 0 -224 168l-8 60v32q0 126 148 204q44 16 72 16zM58 672h488l8 -8v-656l-8 -8h-488l-8 8v656z" />
    <glyph glyph-name="j" unicode="j" horiz-adv-x="956" 
d="M622 1344h64q126 0 204 -148q16 -44 16 -72v-32q0 -131 -144 -208q-41 -20 -100 -20h-28q-153 0 -224 172q-8 17 -12 68q0 169 188 236zM406 676h492l8 -8v-708q0 -199 -212 -336q-89 -44 -176 -44h-460l-8 8v236l8 8h148q154 0 184 96l8 36v704z" />
    <glyph glyph-name="k" unicode="k" horiz-adv-x="1292" 
d="M58 1344h488l8 -8v-748h36q123 336 136 336h508l8 -8l-176 -456l176 -456l-4 -4h-512q-14 6 -136 332h-36v-324l-8 -8h-488l-8 8v1328z" />
    <glyph glyph-name="l" unicode="l" horiz-adv-x="940" 
d="M58 1344h488q8 0 8 -12l4 -976q0 -61 96 -100l64 -4h164l8 -8v-236l-8 -8h-452q-214 0 -348 236q-32 81 -32 144v956z" />
    <glyph glyph-name="m" unicode="m" horiz-adv-x="2284" 
d="M58 924h956q45 0 132 -24q69 24 124 24h584q214 0 348 -236q32 -81 32 -144v-536l-8 -8h-492l-8 8v552q-26 108 -108 108h-112q-108 -26 -108 -108v-552l-8 -8h-496l-8 8v552q-26 108 -108 108h-224v-660l-8 -8h-488l-8 8v908z" />
    <glyph glyph-name="n" unicode="n" horiz-adv-x="1444" 
d="M58 924h956q214 0 348 -236q32 -81 32 -144v-536l-8 -8h-492l-8 8v552q-26 108 -108 108h-224v-660l-8 -8h-488l-8 8v908z" />
    <glyph glyph-name="o" unicode="o" horiz-adv-x="1516" 
d="M730 924h56q345 0 568 -196q112 -117 112 -248v-36q0 -244 -336 -384q-173 -60 -344 -60h-56q-345 0 -568 196q-112 117 -112 248v36q0 244 336 384q173 60 344 60zM558 472v-20q0 -136 152 -192l48 -8q135 0 196 156l4 44v20q0 136 -152 192l-48 8q-135 0 -196 -156z
" />
    <glyph glyph-name="p" unicode="p" horiz-adv-x="1444" 
d="M58 924h956q214 0 348 -236q32 -81 32 -144v-164q0 -205 -216 -336q-80 -44 -172 -44h-452v-412l-8 -8h-488l-8 8v1328zM554 672v-416h224q71 0 108 96v208q0 92 -132 112h-200z" />
    <glyph glyph-name="q" unicode="q" horiz-adv-x="1444" 
d="M430 924h956l8 -8v-1328l-8 -8h-488l-8 8v412h-452q-215 0 -344 216q-44 83 -44 164v164q0 214 236 348q81 32 144 32zM558 560v-196q0 -71 96 -108h236v416h-172q-121 0 -152 -76z" />
    <glyph glyph-name="r" unicode="r" horiz-adv-x="1444" 
d="M58 924h956q214 0 348 -236q32 -81 32 -144v-12l-8 -8h-492l-8 8v28q-26 108 -108 108h-224v-660l-8 -8h-488l-8 8v908z" />
    <glyph glyph-name="s" unicode="s" horiz-adv-x="1440" 
d="M654 924h148q379 0 508 -116q63 -42 80 -64q-56 -32 -460 -180q0 45 -88 88q-43 16 -84 16h-56l-4 4l-4 -4h-20q-93 0 -124 -56q18 -60 180 -60q482 -3 616 -208l16 -60v-20q0 -118 -220 -208q-162 -56 -352 -56h-216q-390 0 -524 180q13 12 468 180h4v-12
q25 -92 168 -92h84q116 10 116 60q0 60 -256 60q-338 0 -516 172q-36 60 -36 92v20q0 118 220 208q162 56 352 56z" />
    <glyph glyph-name="t" unicode="t" horiz-adv-x="940" 
d="M58 1344h488l8 -8v-412h204l8 -8v-240l-8 -8h-204v-160q0 -204 28 -204q29 -52 136 -52h164l8 -8v-236l-8 -8h-452q-214 0 -348 236q-32 81 -32 144v956z" />
    <glyph glyph-name="u" unicode="u" horiz-adv-x="1444" 
d="M58 924h492l8 -8v-552q27 -108 108 -108h224v660l8 8h488l8 -8v-908l-8 -8h-956q-214 0 -348 236q-32 81 -32 144v536z" />
    <glyph glyph-name="v" unicode="v" horiz-adv-x="1308" 
d="M554 924q12 0 48 -304l48 -340h8v4q84 620 92 640h500l8 -8q-124 -896 -132 -916h-940q-12 0 -32 192l-104 728l4 4h500z" />
    <glyph glyph-name="w" unicode="w" horiz-adv-x="1688" 
d="M554 924q13 0 72 -472l28 -176h4l92 648h184q10 0 36 -228l60 -420h4l96 648h500l8 -8l-132 -916h-560q-11 0 -48 308q-6 0 -48 336h-8v-4q-84 -620 -92 -640h-564q-12 0 -32 192l-104 728l4 4h500z" />
    <glyph glyph-name="x" unicode="x" horiz-adv-x="1408" 
d="M570 944q14 -18 132 -332h4q118 314 132 332h512l8 -8q-176 -441 -176 -456l176 -476l-4 -4h-516q-7 0 -132 348h-4q-125 -348 -132 -348h-512l-8 8l176 476l-176 456l4 4h516z" />
    <glyph glyph-name="y" unicode="y" horiz-adv-x="1452" 
d="M62 924h492l8 -8v-512q0 -111 84 -144l28 -4h220v660l8 8h492l8 -8v-956q0 -205 -216 -336q-80 -44 -172 -44h-508q-232 0 -452 176l-4 4v12l276 140q57 -80 288 -80h88q162 0 184 104q8 0 8 28v36h-448q-241 0 -368 260q-24 73 -24 152v504z" />
    <glyph glyph-name="z" unicode="z" horiz-adv-x="1280" 
d="M58 944h1160l4 -4h4l-452 -688h448l8 -8v-236l-8 -8h-1164l-8 8l452 680v4h-444l-8 8v236z" />
    <glyph glyph-name="braceleft" unicode="{" horiz-adv-x="888" 
d="M338 1590h492l8 -8v-240l-8 -8h-244v-484l-176 -180l176 -176v-484h244l8 -8v-240l-8 -8h-492l-8 8v628l-280 284l280 284v624z" />
    <glyph glyph-name="bar" unicode="|" horiz-adv-x="352" 
d="M58 1590h236l8 -8v-1820l-8 -8h-236l-8 8v1820z" />
    <glyph glyph-name="braceright" unicode="}" horiz-adv-x="888" 
d="M58 1590h492l8 -8v-624l280 -284l-280 -284v-628l-8 -8h-492l-8 8v240l8 8h244v484l176 180l-176 176v484h-244l-8 8v240z" />
    <glyph glyph-name="asciitilde" unicode="~" horiz-adv-x="1088" 
d="M358 832h48q64 0 256 -64l48 -4q93 0 172 64h4l152 -152v-4q-139 -160 -296 -160h-56q-66 0 -244 60l-64 8q-89 0 -172 -64h-4l-152 156q139 160 308 160z" />
    <glyph glyph-name="exclamdown" unicode="&#xa1;" horiz-adv-x="682" 
 />
    <glyph glyph-name="cent" unicode="&#xa2;" 
 />
    <glyph glyph-name="sterling" unicode="&#xa3;" 
 />
    <glyph glyph-name="currency" unicode="&#xa4;" 
 />
    <glyph glyph-name="yen" unicode="&#xa5;" 
 />
    <glyph glyph-name="brokenbar" unicode="&#xa6;" horiz-adv-x="532" 
 />
    <glyph glyph-name="section" unicode="&#xa7;" 
 />
    <glyph glyph-name="dieresis" unicode="&#xa8;" horiz-adv-x="682" 
 />
    <glyph glyph-name="copyright" unicode="&#xa9;" horiz-adv-x="1509" 
 />
    <glyph glyph-name="ordfeminine" unicode="&#xaa;" horiz-adv-x="758" 
 />
    <glyph glyph-name="guillemotleft" unicode="&#xab;" 
 />
    <glyph glyph-name="logicalnot" unicode="&#xac;" horiz-adv-x="1196" 
 />
    <glyph glyph-name="registered" unicode="&#xae;" horiz-adv-x="1509" 
 />
    <glyph glyph-name="macron" unicode="&#xaf;" horiz-adv-x="1131" 
 />
    <glyph glyph-name="degree" unicode="&#xb0;" horiz-adv-x="819" 
 />
    <glyph glyph-name="plusminus" unicode="&#xb1;" horiz-adv-x="1124" 
 />
    <glyph glyph-name="uni00B2" unicode="&#xb2;" horiz-adv-x="682" 
 />
    <glyph glyph-name="uni00B3" unicode="&#xb3;" horiz-adv-x="682" 
 />
    <glyph glyph-name="acute" unicode="&#xb4;" horiz-adv-x="682" 
 />
    <glyph glyph-name="mu" unicode="&#xb5;" horiz-adv-x="1180" 
 />
    <glyph glyph-name="paragraph" unicode="&#xb6;" horiz-adv-x="1100" 
 />
    <glyph glyph-name="periodcentered" unicode="&#xb7;" horiz-adv-x="569" 
 />
    <glyph glyph-name="periodcentered" unicode="&#x2219;" horiz-adv-x="569" 
 />
    <glyph glyph-name="cedilla" unicode="&#xb8;" horiz-adv-x="682" 
 />
    <glyph glyph-name="uni00B9" unicode="&#xb9;" horiz-adv-x="682" 
 />
    <glyph glyph-name="ordmasculine" unicode="&#xba;" horiz-adv-x="748" 
 />
    <glyph glyph-name="guillemotright" unicode="&#xbb;" 
 />
    <glyph glyph-name="onequarter" unicode="&#xbc;" horiz-adv-x="1708" 
 />
    <glyph glyph-name="onehalf" unicode="&#xbd;" horiz-adv-x="1708" 
 />
    <glyph glyph-name="threequarters" unicode="&#xbe;" horiz-adv-x="1708" 
 />
    <glyph glyph-name="questiondown" unicode="&#xbf;" horiz-adv-x="1251" 
 />
    <glyph glyph-name="Agrave" unicode="&#xc0;" horiz-adv-x="1366" 
 />
    <glyph glyph-name="Aacute" unicode="&#xc1;" horiz-adv-x="1366" 
 />
    <glyph glyph-name="Acircumflex" unicode="&#xc2;" horiz-adv-x="1366" 
 />
    <glyph glyph-name="Atilde" unicode="&#xc3;" horiz-adv-x="1366" 
 />
    <glyph glyph-name="Adieresis" unicode="&#xc4;" horiz-adv-x="1366" 
 />
    <glyph glyph-name="Aring" unicode="&#xc5;" horiz-adv-x="1366" 
 />
    <glyph glyph-name="AE" unicode="&#xc6;" horiz-adv-x="2048" 
 />
    <glyph glyph-name="Ccedilla" unicode="&#xc7;" horiz-adv-x="1479" 
 />
    <glyph glyph-name="Egrave" unicode="&#xc8;" horiz-adv-x="1366" 
 />
    <glyph glyph-name="Eacute" unicode="&#xc9;" horiz-adv-x="1366" 
 />
    <glyph glyph-name="Ecircumflex" unicode="&#xca;" horiz-adv-x="1366" 
 />
    <glyph glyph-name="Edieresis" unicode="&#xcb;" horiz-adv-x="1366" 
 />
    <glyph glyph-name="Igrave" unicode="&#xcc;" horiz-adv-x="569" 
 />
    <glyph glyph-name="Iacute" unicode="&#xcd;" horiz-adv-x="569" 
 />
    <glyph glyph-name="Icircumflex" unicode="&#xce;" horiz-adv-x="569" 
 />
    <glyph glyph-name="Idieresis" unicode="&#xcf;" horiz-adv-x="569" 
 />
    <glyph glyph-name="Eth" unicode="&#xd0;" horiz-adv-x="1479" 
 />
    <glyph glyph-name="Ntilde" unicode="&#xd1;" horiz-adv-x="1479" 
 />
    <glyph glyph-name="Ograve" unicode="&#xd2;" horiz-adv-x="1593" 
 />
    <glyph glyph-name="Oacute" unicode="&#xd3;" horiz-adv-x="1593" 
 />
    <glyph glyph-name="Ocircumflex" unicode="&#xd4;" horiz-adv-x="1593" 
 />
    <glyph glyph-name="Otilde" unicode="&#xd5;" horiz-adv-x="1593" 
 />
    <glyph glyph-name="Odieresis" unicode="&#xd6;" horiz-adv-x="1593" 
 />
    <glyph glyph-name="multiply" unicode="&#xd7;" horiz-adv-x="1196" 
 />
    <glyph glyph-name="Oslash" unicode="&#xd8;" horiz-adv-x="1593" 
 />
    <glyph glyph-name="Ugrave" unicode="&#xd9;" horiz-adv-x="1479" 
 />
    <glyph glyph-name="Uacute" unicode="&#xda;" horiz-adv-x="1479" 
 />
    <glyph glyph-name="Ucircumflex" unicode="&#xdb;" horiz-adv-x="1479" 
 />
    <glyph glyph-name="Udieresis" unicode="&#xdc;" horiz-adv-x="1479" 
 />
    <glyph glyph-name="Yacute" unicode="&#xdd;" horiz-adv-x="1366" 
 />
    <glyph glyph-name="Thorn" unicode="&#xde;" horiz-adv-x="1366" 
 />
    <glyph glyph-name="germandbls" unicode="&#xdf;" horiz-adv-x="1251" 
 />
    <glyph glyph-name="agrave" unicode="&#xe0;" 
 />
    <glyph glyph-name="aacute" unicode="&#xe1;" 
 />
    <glyph glyph-name="acircumflex" unicode="&#xe2;" 
 />
    <glyph glyph-name="atilde" unicode="&#xe3;" 
 />
    <glyph glyph-name="adieresis" unicode="&#xe4;" 
 />
    <glyph glyph-name="aring" unicode="&#xe5;" 
 />
    <glyph glyph-name="ae" unicode="&#xe6;" horiz-adv-x="1821" 
 />
    <glyph glyph-name="ccedilla" unicode="&#xe7;" horiz-adv-x="1024" 
 />
    <glyph glyph-name="egrave" unicode="&#xe8;" 
 />
    <glyph glyph-name="eacute" unicode="&#xe9;" 
 />
    <glyph glyph-name="ecircumflex" unicode="&#xea;" 
 />
    <glyph glyph-name="edieresis" unicode="&#xeb;" 
 />
    <glyph glyph-name="igrave" unicode="&#xec;" horiz-adv-x="569" 
 />
    <glyph glyph-name="iacute" unicode="&#xed;" horiz-adv-x="569" 
 />
    <glyph glyph-name="icircumflex" unicode="&#xee;" horiz-adv-x="569" 
 />
    <glyph glyph-name="idieresis" unicode="&#xef;" horiz-adv-x="569" 
 />
    <glyph glyph-name="eth" unicode="&#xf0;" 
 />
    <glyph glyph-name="ntilde" unicode="&#xf1;" 
 />
    <glyph glyph-name="ograve" unicode="&#xf2;" 
 />
    <glyph glyph-name="oacute" unicode="&#xf3;" 
 />
    <glyph glyph-name="ocircumflex" unicode="&#xf4;" 
 />
    <glyph glyph-name="otilde" unicode="&#xf5;" 
 />
    <glyph glyph-name="odieresis" unicode="&#xf6;" 
 />
    <glyph glyph-name="divide" unicode="&#xf7;" horiz-adv-x="1124" 
 />
    <glyph glyph-name="oslash" unicode="&#xf8;" horiz-adv-x="1251" 
 />
    <glyph glyph-name="ugrave" unicode="&#xf9;" 
 />
    <glyph glyph-name="uacute" unicode="&#xfa;" 
 />
    <glyph glyph-name="ucircumflex" unicode="&#xfb;" 
 />
    <glyph glyph-name="udieresis" unicode="&#xfc;" 
 />
    <glyph glyph-name="yacute" unicode="&#xfd;" horiz-adv-x="1024" 
 />
    <glyph glyph-name="thorn" unicode="&#xfe;" 
 />
    <glyph glyph-name="ydieresis" unicode="&#xff;" horiz-adv-x="1024" 
 />
    <glyph glyph-name="Amacron" unicode="&#x100;" horiz-adv-x="1366" 
 />
    <glyph glyph-name="amacron" unicode="&#x101;" 
 />
    <glyph glyph-name="Abreve" unicode="&#x102;" horiz-adv-x="1366" 
 />
    <glyph glyph-name="abreve" unicode="&#x103;" 
 />
    <glyph glyph-name="Aogonek" unicode="&#x104;" horiz-adv-x="1366" 
 />
    <glyph glyph-name="aogonek" unicode="&#x105;" 
 />
    <glyph glyph-name="Cacute" unicode="&#x106;" horiz-adv-x="1479" 
 />
    <glyph glyph-name="cacute" unicode="&#x107;" horiz-adv-x="1024" 
 />
    <glyph glyph-name="Ccircumflex" unicode="&#x108;" horiz-adv-x="1479" 
 />
    <glyph glyph-name="ccircumflex" unicode="&#x109;" horiz-adv-x="1024" 
 />
    <glyph glyph-name="Cdotaccent" unicode="&#x10a;" horiz-adv-x="1479" 
 />
    <glyph glyph-name="cdotaccent" unicode="&#x10b;" horiz-adv-x="1024" 
 />
    <glyph glyph-name="Ccaron" unicode="&#x10c;" horiz-adv-x="1479" 
 />
    <glyph glyph-name="ccaron" unicode="&#x10d;" horiz-adv-x="1024" 
 />
    <glyph glyph-name="Dcaron" unicode="&#x10e;" horiz-adv-x="1479" 
 />
    <glyph glyph-name="dcaron" unicode="&#x10f;" horiz-adv-x="1259" 
 />
    <glyph glyph-name="Dcroat" unicode="&#x110;" horiz-adv-x="1479" 
 />
    <glyph glyph-name="dcroat" unicode="&#x111;" 
 />
    <glyph glyph-name="Emacron" unicode="&#x112;" horiz-adv-x="1366" 
 />
    <glyph glyph-name="emacron" unicode="&#x113;" 
 />
    <glyph glyph-name="Ebreve" unicode="&#x114;" horiz-adv-x="1366" 
 />
    <glyph glyph-name="ebreve" unicode="&#x115;" 
 />
    <glyph glyph-name="Edotaccent" unicode="&#x116;" horiz-adv-x="1366" 
 />
    <glyph glyph-name="edotaccent" unicode="&#x117;" 
 />
    <glyph glyph-name="Eogonek" unicode="&#x118;" horiz-adv-x="1366" 
 />
    <glyph glyph-name="eogonek" unicode="&#x119;" 
 />
    <glyph glyph-name="Ecaron" unicode="&#x11a;" horiz-adv-x="1366" 
 />
    <glyph glyph-name="ecaron" unicode="&#x11b;" 
 />
    <glyph glyph-name="Gcircumflex" unicode="&#x11c;" horiz-adv-x="1593" 
 />
    <glyph glyph-name="gcircumflex" unicode="&#x11d;" 
 />
    <glyph glyph-name="Gbreve" unicode="&#x11e;" horiz-adv-x="1593" 
 />
    <glyph glyph-name="gbreve" unicode="&#x11f;" 
 />
    <glyph glyph-name="Gdotaccent" unicode="&#x120;" horiz-adv-x="1593" 
 />
    <glyph glyph-name="gdotaccent" unicode="&#x121;" 
 />
    <glyph glyph-name="Gcommaaccent" unicode="&#x122;" horiz-adv-x="1593" 
 />
    <glyph glyph-name="gcommaaccent" unicode="&#x123;" 
 />
    <glyph glyph-name="Hcircumflex" unicode="&#x124;" horiz-adv-x="1479" 
 />
    <glyph glyph-name="hcircumflex" unicode="&#x125;" 
 />
    <glyph glyph-name="Hbar" unicode="&#x126;" horiz-adv-x="1479" 
 />
    <glyph glyph-name="hbar" unicode="&#x127;" 
 />
    <glyph glyph-name="Itilde" unicode="&#x128;" horiz-adv-x="569" 
 />
    <glyph glyph-name="itilde" unicode="&#x129;" horiz-adv-x="569" 
 />
    <glyph glyph-name="Imacron" unicode="&#x12a;" horiz-adv-x="569" 
 />
    <glyph glyph-name="imacron" unicode="&#x12b;" horiz-adv-x="569" 
 />
    <glyph glyph-name="Ibreve" unicode="&#x12c;" horiz-adv-x="569" 
 />
    <glyph glyph-name="ibreve" unicode="&#x12d;" horiz-adv-x="569" 
 />
    <glyph glyph-name="Iogonek" unicode="&#x12e;" horiz-adv-x="569" 
 />
    <glyph glyph-name="iogonek" unicode="&#x12f;" horiz-adv-x="455" 
 />
    <glyph glyph-name="Idotaccent" unicode="&#x130;" horiz-adv-x="569" 
 />
    <glyph glyph-name="dotlessi" unicode="&#x131;" horiz-adv-x="569" 
 />
    <glyph glyph-name="IJ" unicode="&#x132;" horiz-adv-x="1505" 
 />
    <glyph glyph-name="ij" unicode="&#x133;" horiz-adv-x="909" 
 />
    <glyph glyph-name="Jcircumflex" unicode="&#x134;" horiz-adv-x="1024" 
 />
    <glyph glyph-name="jcircumflex" unicode="&#x135;" horiz-adv-x="455" 
 />
    <glyph glyph-name="Kcommaaccent" unicode="&#x136;" horiz-adv-x="1366" 
 />
    <glyph glyph-name="kcommaaccent" unicode="&#x137;" horiz-adv-x="1024" 
 />
    <glyph glyph-name="kgreenlandic" unicode="&#x138;" horiz-adv-x="1024" 
 />
    <glyph glyph-name="Lacute" unicode="&#x139;" 
 />
    <glyph glyph-name="lacute" unicode="&#x13a;" horiz-adv-x="455" 
 />
    <glyph glyph-name="Lcommaaccent" unicode="&#x13b;" 
 />
    <glyph glyph-name="lcommaaccent" unicode="&#x13c;" horiz-adv-x="455" 
 />
    <glyph glyph-name="Lcaron" unicode="&#x13d;" 
 />
    <glyph glyph-name="lcaron" unicode="&#x13e;" horiz-adv-x="597" 
 />
    <glyph glyph-name="Ldot" unicode="&#x13f;" 
 />
    <glyph glyph-name="ldot" unicode="&#x140;" horiz-adv-x="684" 
 />
    <glyph glyph-name="Lslash" unicode="&#x141;" 
 />
    <glyph glyph-name="lslash" unicode="&#x142;" horiz-adv-x="455" 
 />
    <glyph glyph-name="Nacute" unicode="&#x143;" horiz-adv-x="1479" 
 />
    <glyph glyph-name="nacute" unicode="&#x144;" 
 />
    <glyph glyph-name="Ncommaaccent" unicode="&#x145;" horiz-adv-x="1479" 
 />
    <glyph glyph-name="ncommaaccent" unicode="&#x146;" 
 />
    <glyph glyph-name="Ncaron" unicode="&#x147;" horiz-adv-x="1479" 
 />
    <glyph glyph-name="ncaron" unicode="&#x148;" 
 />
    <glyph glyph-name="napostrophe" unicode="&#x149;" horiz-adv-x="1237" 
 />
    <glyph glyph-name="Eng" unicode="&#x14a;" horiz-adv-x="1481" 
 />
    <glyph glyph-name="eng" unicode="&#x14b;" 
 />
    <glyph glyph-name="Omacron" unicode="&#x14c;" horiz-adv-x="1593" 
 />
    <glyph glyph-name="omacron" unicode="&#x14d;" 
 />
    <glyph glyph-name="Obreve" unicode="&#x14e;" horiz-adv-x="1593" 
 />
    <glyph glyph-name="obreve" unicode="&#x14f;" 
 />
    <glyph glyph-name="Ohungarumlaut" unicode="&#x150;" horiz-adv-x="1593" 
 />
    <glyph glyph-name="ohungarumlaut" unicode="&#x151;" 
 />
    <glyph glyph-name="OE" unicode="&#x152;" horiz-adv-x="2048" 
 />
    <glyph glyph-name="oe" unicode="&#x153;" horiz-adv-x="1933" 
 />
    <glyph glyph-name="Racute" unicode="&#x154;" horiz-adv-x="1479" 
 />
    <glyph glyph-name="racute" unicode="&#x155;" horiz-adv-x="682" 
 />
    <glyph glyph-name="Rcommaaccent" unicode="&#x156;" horiz-adv-x="1479" 
 />
    <glyph glyph-name="rcommaaccent" unicode="&#x157;" horiz-adv-x="682" 
 />
    <glyph glyph-name="Rcaron" unicode="&#x158;" horiz-adv-x="1479" 
 />
    <glyph glyph-name="rcaron" unicode="&#x159;" horiz-adv-x="682" 
 />
    <glyph glyph-name="Sacute" unicode="&#x15a;" horiz-adv-x="1366" 
 />
    <glyph glyph-name="sacute" unicode="&#x15b;" horiz-adv-x="1024" 
 />
    <glyph glyph-name="Scircumflex" unicode="&#x15c;" horiz-adv-x="1366" 
 />
    <glyph glyph-name="scircumflex" unicode="&#x15d;" horiz-adv-x="1024" 
 />
    <glyph glyph-name="Scedilla" unicode="&#x15e;" horiz-adv-x="1366" 
 />
    <glyph glyph-name="scedilla" unicode="&#x15f;" horiz-adv-x="1024" 
 />
    <glyph glyph-name="Scaron" unicode="&#x160;" horiz-adv-x="1366" 
 />
    <glyph glyph-name="scaron" unicode="&#x161;" horiz-adv-x="1024" 
 />
    <glyph glyph-name="Tcommaaccent" unicode="&#x162;" horiz-adv-x="1251" 
 />
    <glyph glyph-name="tcommaaccent" unicode="&#x163;" horiz-adv-x="569" 
 />
    <glyph glyph-name="Tcaron" unicode="&#x164;" horiz-adv-x="1251" 
 />
    <glyph glyph-name="tcaron" unicode="&#x165;" horiz-adv-x="768" 
 />
    <glyph glyph-name="Tbar" unicode="&#x166;" horiz-adv-x="1251" 
 />
    <glyph glyph-name="tbar" unicode="&#x167;" horiz-adv-x="569" 
 />
    <glyph glyph-name="Utilde" unicode="&#x168;" horiz-adv-x="1479" 
 />
    <glyph glyph-name="utilde" unicode="&#x169;" 
 />
    <glyph glyph-name="Umacron" unicode="&#x16a;" horiz-adv-x="1479" 
 />
    <glyph glyph-name="umacron" unicode="&#x16b;" 
 />
    <glyph glyph-name="Ubreve" unicode="&#x16c;" horiz-adv-x="1479" 
 />
    <glyph glyph-name="ubreve" unicode="&#x16d;" 
 />
    <glyph glyph-name="Uring" unicode="&#x16e;" horiz-adv-x="1479" 
 />
    <glyph glyph-name="uring" unicode="&#x16f;" 
 />
    <glyph glyph-name="Uhungarumlaut" unicode="&#x170;" horiz-adv-x="1479" 
 />
    <glyph glyph-name="uhungarumlaut" unicode="&#x171;" 
 />
    <glyph glyph-name="Uogonek" unicode="&#x172;" horiz-adv-x="1479" 
 />
    <glyph glyph-name="uogonek" unicode="&#x173;" 
 />
    <glyph glyph-name="Wcircumflex" unicode="&#x174;" horiz-adv-x="1933" 
 />
    <glyph glyph-name="wcircumflex" unicode="&#x175;" horiz-adv-x="1479" 
 />
    <glyph glyph-name="Ycircumflex" unicode="&#x176;" horiz-adv-x="1366" 
 />
    <glyph glyph-name="ycircumflex" unicode="&#x177;" horiz-adv-x="1024" 
 />
    <glyph glyph-name="Ydieresis" unicode="&#x178;" horiz-adv-x="1366" 
 />
    <glyph glyph-name="Zacute" unicode="&#x179;" horiz-adv-x="1251" 
 />
    <glyph glyph-name="zacute" unicode="&#x17a;" horiz-adv-x="1024" 
 />
    <glyph glyph-name="Zdotaccent" unicode="&#x17b;" horiz-adv-x="1251" 
 />
    <glyph glyph-name="zdotaccent" unicode="&#x17c;" horiz-adv-x="1024" 
 />
    <glyph glyph-name="Zcaron" unicode="&#x17d;" horiz-adv-x="1251" 
 />
    <glyph glyph-name="zcaron" unicode="&#x17e;" horiz-adv-x="1024" 
 />
    <glyph glyph-name="longs" unicode="&#x17f;" horiz-adv-x="455" 
 />
    <glyph glyph-name="florin" unicode="&#x192;" 
 />
    <glyph glyph-name="Aringacute" unicode="&#x1fa;" horiz-adv-x="1366" 
 />
    <glyph glyph-name="aringacute" unicode="&#x1fb;" 
 />
    <glyph glyph-name="AEacute" unicode="&#x1fc;" horiz-adv-x="2048" 
 />
    <glyph glyph-name="aeacute" unicode="&#x1fd;" horiz-adv-x="1821" 
 />
    <glyph glyph-name="Oslashacute" unicode="&#x1fe;" horiz-adv-x="1593" 
 />
    <glyph glyph-name="oslashacute" unicode="&#x1ff;" horiz-adv-x="1251" 
 />
    <glyph glyph-name="circumflex" unicode="&#x2c6;" horiz-adv-x="682" 
 />
    <glyph glyph-name="caron" unicode="&#x2c7;" horiz-adv-x="682" 
 />
    <glyph glyph-name="uni02C9" unicode="&#x2c9;" horiz-adv-x="682" 
 />
    <glyph glyph-name="breve" unicode="&#x2d8;" horiz-adv-x="682" 
 />
    <glyph glyph-name="dotaccent" unicode="&#x2d9;" horiz-adv-x="682" 
 />
    <glyph glyph-name="ring" unicode="&#x2da;" horiz-adv-x="682" 
 />
    <glyph glyph-name="ogonek" unicode="&#x2db;" horiz-adv-x="682" 
 />
    <glyph glyph-name="tilde" unicode="&#x2dc;" horiz-adv-x="682" 
 />
    <glyph glyph-name="hungarumlaut" unicode="&#x2dd;" horiz-adv-x="682" 
 />
    <glyph glyph-name="tonos" unicode="&#x384;" horiz-adv-x="682" 
 />
    <glyph glyph-name="dieresistonos" unicode="&#x385;" horiz-adv-x="682" 
 />
    <glyph glyph-name="Alphatonos" unicode="&#x386;" horiz-adv-x="1367" 
 />
    <glyph glyph-name="anoteleia" unicode="&#x387;" horiz-adv-x="569" 
 />
    <glyph glyph-name="Epsilontonos" unicode="&#x388;" horiz-adv-x="1606" 
 />
    <glyph glyph-name="Etatonos" unicode="&#x389;" horiz-adv-x="1716" 
 />
    <glyph glyph-name="Iotatonos" unicode="&#x38a;" horiz-adv-x="786" 
 />
    <glyph glyph-name="Omicrontonos" unicode="&#x38c;" horiz-adv-x="1586" 
 />
    <glyph glyph-name="Upsilontonos" unicode="&#x38e;" horiz-adv-x="1752" 
 />
    <glyph glyph-name="Omegatonos" unicode="&#x38f;" horiz-adv-x="1541" 
 />
    <glyph glyph-name="iotadieresistonos" unicode="&#x390;" horiz-adv-x="455" 
 />
    <glyph glyph-name="Alpha" unicode="&#x391;" horiz-adv-x="1366" 
 />
    <glyph glyph-name="Beta" unicode="&#x392;" horiz-adv-x="1366" 
 />
    <glyph glyph-name="Gamma" unicode="&#x393;" horiz-adv-x="1128" 
 />
    <glyph glyph-name="uni0394" unicode="&#x394;" horiz-adv-x="1368" 
 />
    <glyph glyph-name="Epsilon" unicode="&#x395;" horiz-adv-x="1366" 
 />
    <glyph glyph-name="Zeta" unicode="&#x396;" horiz-adv-x="1251" 
 />
    <glyph glyph-name="Eta" unicode="&#x397;" horiz-adv-x="1479" 
 />
    <glyph glyph-name="Theta" unicode="&#x398;" horiz-adv-x="1593" 
 />
    <glyph glyph-name="Iota" unicode="&#x399;" horiz-adv-x="569" 
 />
    <glyph glyph-name="Kappa" unicode="&#x39a;" horiz-adv-x="1366" 
 />
    <glyph glyph-name="Lambda" unicode="&#x39b;" horiz-adv-x="1368" 
 />
    <glyph glyph-name="Mu" unicode="&#x39c;" horiz-adv-x="1706" 
 />
    <glyph glyph-name="Nu" unicode="&#x39d;" horiz-adv-x="1479" 
 />
    <glyph glyph-name="Xi" unicode="&#x39e;" horiz-adv-x="1331" 
 />
    <glyph glyph-name="Omicron" unicode="&#x39f;" horiz-adv-x="1593" 
 />
    <glyph glyph-name="Pi" unicode="&#x3a0;" horiz-adv-x="1479" 
 />
    <glyph glyph-name="Rho" unicode="&#x3a1;" horiz-adv-x="1366" 
 />
    <glyph glyph-name="Sigma" unicode="&#x3a3;" horiz-adv-x="1266" 
 />
    <glyph glyph-name="Tau" unicode="&#x3a4;" horiz-adv-x="1251" 
 />
    <glyph glyph-name="Upsilon" unicode="&#x3a5;" horiz-adv-x="1366" 
 />
    <glyph glyph-name="Phi" unicode="&#x3a6;" horiz-adv-x="1634" 
 />
    <glyph glyph-name="Chi" unicode="&#x3a7;" horiz-adv-x="1366" 
 />
    <glyph glyph-name="Psi" unicode="&#x3a8;" horiz-adv-x="1711" 
 />
    <glyph glyph-name="uni03A9" unicode="&#x3a9;" horiz-adv-x="1531" 
 />
    <glyph glyph-name="Iotadieresis" unicode="&#x3aa;" horiz-adv-x="569" 
 />
    <glyph glyph-name="Upsilondieresis" unicode="&#x3ab;" horiz-adv-x="1366" 
 />
    <glyph glyph-name="alphatonos" unicode="&#x3ac;" horiz-adv-x="1184" 
 />
    <glyph glyph-name="epsilontonos" unicode="&#x3ad;" horiz-adv-x="913" 
 />
    <glyph glyph-name="etatonos" unicode="&#x3ae;" 
 />
    <glyph glyph-name="iotatonos" unicode="&#x3af;" horiz-adv-x="455" 
 />
    <glyph glyph-name="upsilondieresistonos" unicode="&#x3b0;" horiz-adv-x="1120" 
 />
    <glyph glyph-name="alpha" unicode="&#x3b1;" horiz-adv-x="1184" 
 />
    <glyph glyph-name="beta" unicode="&#x3b2;" horiz-adv-x="1178" 
 />
    <glyph glyph-name="gamma" unicode="&#x3b3;" horiz-adv-x="1024" 
 />
    <glyph glyph-name="delta" unicode="&#x3b4;" horiz-adv-x="1140" 
 />
    <glyph glyph-name="epsilon" unicode="&#x3b5;" horiz-adv-x="913" 
 />
    <glyph glyph-name="zeta" unicode="&#x3b6;" horiz-adv-x="903" 
 />
    <glyph glyph-name="eta" unicode="&#x3b7;" 
 />
    <glyph glyph-name="theta" unicode="&#x3b8;" 
 />
    <glyph glyph-name="iota" unicode="&#x3b9;" horiz-adv-x="455" 
 />
    <glyph glyph-name="kappa" unicode="&#x3ba;" horiz-adv-x="1024" 
 />
    <glyph glyph-name="lambda" unicode="&#x3bb;" horiz-adv-x="1024" 
 />
    <glyph glyph-name="uni03BC" unicode="&#x3bc;" horiz-adv-x="1180" 
 />
    <glyph glyph-name="nu" unicode="&#x3bd;" horiz-adv-x="1024" 
 />
    <glyph glyph-name="xi" unicode="&#x3be;" horiz-adv-x="917" 
 />
    <glyph glyph-name="omicron" unicode="&#x3bf;" 
 />
    <glyph glyph-name="pi" unicode="&#x3c0;" horiz-adv-x="1413" 
 />
    <glyph glyph-name="rho" unicode="&#x3c1;" horiz-adv-x="1165" 
 />
    <glyph glyph-name="sigma1" unicode="&#x3c2;" horiz-adv-x="987" 
 />
    <glyph glyph-name="sigma" unicode="&#x3c3;" horiz-adv-x="1264" 
 />
    <glyph glyph-name="tau" unicode="&#x3c4;" horiz-adv-x="809" 
 />
    <glyph glyph-name="upsilon" unicode="&#x3c5;" horiz-adv-x="1120" 
 />
    <glyph glyph-name="phi" unicode="&#x3c6;" horiz-adv-x="1328" 
 />
    <glyph glyph-name="chi" unicode="&#x3c7;" horiz-adv-x="1075" 
 />
    <glyph glyph-name="psi" unicode="&#x3c8;" horiz-adv-x="1460" 
 />
    <glyph glyph-name="omega" unicode="&#x3c9;" horiz-adv-x="1599" 
 />
    <glyph glyph-name="iotadieresis" unicode="&#x3ca;" horiz-adv-x="455" 
 />
    <glyph glyph-name="upsilondieresis" unicode="&#x3cb;" horiz-adv-x="1120" 
 />
    <glyph glyph-name="omicrontonos" unicode="&#x3cc;" 
 />
    <glyph glyph-name="upsilontonos" unicode="&#x3cd;" horiz-adv-x="1120" 
 />
    <glyph glyph-name="omegatonos" unicode="&#x3ce;" horiz-adv-x="1599" 
 />
    <glyph glyph-name="afii10023" unicode="&#x401;" horiz-adv-x="1367" 
 />
    <glyph glyph-name="afii10051" unicode="&#x402;" horiz-adv-x="1771" 
 />
    <glyph glyph-name="afii10052" unicode="&#x403;" horiz-adv-x="1109" 
 />
    <glyph glyph-name="afii10053" unicode="&#x404;" horiz-adv-x="1472" 
 />
    <glyph glyph-name="afii10054" unicode="&#x405;" horiz-adv-x="1366" 
 />
    <glyph glyph-name="afii10055" unicode="&#x406;" horiz-adv-x="569" 
 />
    <glyph glyph-name="afii10056" unicode="&#x407;" horiz-adv-x="569" 
 />
    <glyph glyph-name="afii10057" unicode="&#x408;" horiz-adv-x="1024" 
 />
    <glyph glyph-name="afii10058" unicode="&#x409;" horiz-adv-x="2165" 
 />
    <glyph glyph-name="afii10059" unicode="&#x40a;" horiz-adv-x="2069" 
 />
    <glyph glyph-name="afii10060" unicode="&#x40b;" horiz-adv-x="1749" 
 />
    <glyph glyph-name="afii10061" unicode="&#x40c;" horiz-adv-x="1193" 
 />
    <glyph glyph-name="afii10062" unicode="&#x40e;" horiz-adv-x="1301" 
 />
    <glyph glyph-name="afii10145" unicode="&#x40f;" horiz-adv-x="1472" 
 />
    <glyph glyph-name="afii10017" unicode="&#x410;" horiz-adv-x="1366" 
 />
    <glyph glyph-name="afii10018" unicode="&#x411;" horiz-adv-x="1344" 
 />
    <glyph glyph-name="afii10019" unicode="&#x412;" horiz-adv-x="1366" 
 />
    <glyph glyph-name="afii10020" unicode="&#x413;" horiz-adv-x="1109" 
 />
    <glyph glyph-name="afii10021" unicode="&#x414;" horiz-adv-x="1387" 
 />
    <glyph glyph-name="afii10022" unicode="&#x415;" horiz-adv-x="1366" 
 />
    <glyph glyph-name="afii10024" unicode="&#x416;" horiz-adv-x="1891" 
 />
    <glyph glyph-name="afii10025" unicode="&#x417;" horiz-adv-x="1237" 
 />
    <glyph glyph-name="afii10026" unicode="&#x418;" horiz-adv-x="1472" 
 />
    <glyph glyph-name="afii10027" unicode="&#x419;" horiz-adv-x="1472" 
 />
    <glyph glyph-name="afii10028" unicode="&#x41a;" horiz-adv-x="1193" 
 />
    <glyph glyph-name="afii10029" unicode="&#x41b;" horiz-adv-x="1344" 
 />
    <glyph glyph-name="afii10030" unicode="&#x41c;" horiz-adv-x="1706" 
 />
    <glyph glyph-name="afii10031" unicode="&#x41d;" horiz-adv-x="1479" 
 />
    <glyph glyph-name="afii10032" unicode="&#x41e;" horiz-adv-x="1593" 
 />
    <glyph glyph-name="afii10033" unicode="&#x41f;" horiz-adv-x="1472" 
 />
    <glyph glyph-name="afii10034" unicode="&#x420;" horiz-adv-x="1366" 
 />
    <glyph glyph-name="afii10035" unicode="&#x421;" horiz-adv-x="1479" 
 />
    <glyph glyph-name="afii10036" unicode="&#x422;" horiz-adv-x="1251" 
 />
    <glyph glyph-name="afii10037" unicode="&#x423;" horiz-adv-x="1301" 
 />
    <glyph glyph-name="afii10038" unicode="&#x424;" horiz-adv-x="1557" 
 />
    <glyph glyph-name="afii10039" unicode="&#x425;" horiz-adv-x="1366" 
 />
    <glyph glyph-name="afii10040" unicode="&#x426;" horiz-adv-x="1515" 
 />
    <glyph glyph-name="afii10041" unicode="&#x427;" horiz-adv-x="1365" 
 />
    <glyph glyph-name="afii10042" unicode="&#x428;" horiz-adv-x="1877" 
 />
    <glyph glyph-name="afii10043" unicode="&#x429;" horiz-adv-x="1920" 
 />
    <glyph glyph-name="afii10044" unicode="&#x42a;" horiz-adv-x="1621" 
 />
    <glyph glyph-name="afii10045" unicode="&#x42b;" horiz-adv-x="1813" 
 />
    <glyph glyph-name="afii10046" unicode="&#x42c;" horiz-adv-x="1344" 
 />
    <glyph glyph-name="afii10047" unicode="&#x42d;" horiz-adv-x="1472" 
 />
    <glyph glyph-name="afii10048" unicode="&#x42e;" horiz-adv-x="2069" 
 />
    <glyph glyph-name="afii10049" unicode="&#x42f;" horiz-adv-x="1479" 
 />
    <glyph glyph-name="afii10065" unicode="&#x430;" 
 />
    <glyph glyph-name="afii10066" unicode="&#x431;" horiz-adv-x="1173" 
 />
    <glyph glyph-name="afii10067" unicode="&#x432;" horiz-adv-x="1088" 
 />
    <glyph glyph-name="afii10068" unicode="&#x433;" horiz-adv-x="747" 
 />
    <glyph glyph-name="afii10069" unicode="&#x434;" horiz-adv-x="1195" 
 />
    <glyph glyph-name="afii10070" unicode="&#x435;" 
 />
    <glyph glyph-name="afii10072" unicode="&#x436;" horiz-adv-x="1370" 
 />
    <glyph glyph-name="afii10073" unicode="&#x437;" horiz-adv-x="939" 
 />
    <glyph glyph-name="afii10074" unicode="&#x438;" horiz-adv-x="1144" 
 />
    <glyph glyph-name="afii10075" unicode="&#x439;" horiz-adv-x="1144" 
 />
    <glyph glyph-name="afii10076" unicode="&#x43a;" horiz-adv-x="896" 
 />
    <glyph glyph-name="afii10077" unicode="&#x43b;" horiz-adv-x="1195" 
 />
    <glyph glyph-name="afii10078" unicode="&#x43c;" horiz-adv-x="1408" 
 />
    <glyph glyph-name="afii10079" unicode="&#x43d;" horiz-adv-x="1131" 
 />
    <glyph glyph-name="afii10080" unicode="&#x43e;" 
 />
    <glyph glyph-name="afii10081" unicode="&#x43f;" horiz-adv-x="1109" 
 />
    <glyph glyph-name="afii10082" unicode="&#x440;" 
 />
    <glyph glyph-name="afii10083" unicode="&#x441;" horiz-adv-x="1024" 
 />
    <glyph glyph-name="afii10084" unicode="&#x442;" horiz-adv-x="938" 
 />
    <glyph glyph-name="afii10085" unicode="&#x443;" horiz-adv-x="1024" 
 />
    <glyph glyph-name="afii10086" unicode="&#x444;" horiz-adv-x="1685" 
 />
    <glyph glyph-name="afii10087" unicode="&#x445;" horiz-adv-x="1024" 
 />
    <glyph glyph-name="afii10088" unicode="&#x446;" horiz-adv-x="1173" 
 />
    <glyph glyph-name="afii10089" unicode="&#x447;" horiz-adv-x="1067" 
 />
    <glyph glyph-name="afii10090" unicode="&#x448;" horiz-adv-x="1643" 
 />
    <glyph glyph-name="afii10091" unicode="&#x449;" horiz-adv-x="1685" 
 />
    <glyph glyph-name="afii10092" unicode="&#x44a;" horiz-adv-x="1280" 
 />
    <glyph glyph-name="afii10093" unicode="&#x44b;" horiz-adv-x="1472" 
 />
    <glyph glyph-name="afii10094" unicode="&#x44c;" horiz-adv-x="1067" 
 />
    <glyph glyph-name="afii10095" unicode="&#x44d;" horiz-adv-x="1045" 
 />
    <glyph glyph-name="afii10096" unicode="&#x44e;" horiz-adv-x="1536" 
 />
    <glyph glyph-name="afii10097" unicode="&#x44f;" horiz-adv-x="1109" 
 />
    <glyph glyph-name="afii10071" unicode="&#x451;" 
 />
    <glyph glyph-name="afii10099" unicode="&#x452;" 
 />
    <glyph glyph-name="afii10100" unicode="&#x453;" horiz-adv-x="747" 
 />
    <glyph glyph-name="afii10101" unicode="&#x454;" horiz-adv-x="1045" 
 />
    <glyph glyph-name="afii10102" unicode="&#x455;" horiz-adv-x="1024" 
 />
    <glyph glyph-name="afii10103" unicode="&#x456;" horiz-adv-x="455" 
 />
    <glyph glyph-name="afii10104" unicode="&#x457;" horiz-adv-x="569" 
 />
    <glyph glyph-name="afii10105" unicode="&#x458;" horiz-adv-x="455" 
 />
    <glyph glyph-name="afii10106" unicode="&#x459;" horiz-adv-x="1856" 
 />
    <glyph glyph-name="afii10107" unicode="&#x45a;" horiz-adv-x="1664" 
 />
    <glyph glyph-name="afii10108" unicode="&#x45b;" 
 />
    <glyph glyph-name="afii10109" unicode="&#x45c;" horiz-adv-x="896" 
 />
    <glyph glyph-name="afii10110" unicode="&#x45e;" horiz-adv-x="1024" 
 />
    <glyph glyph-name="afii10193" unicode="&#x45f;" horiz-adv-x="1131" 
 />
    <glyph glyph-name="afii10050" unicode="&#x490;" horiz-adv-x="1001" 
 />
    <glyph glyph-name="afii10098" unicode="&#x491;" horiz-adv-x="842" 
 />
    <glyph glyph-name="Wgrave" unicode="&#x1e80;" horiz-adv-x="1933" 
 />
    <glyph glyph-name="wgrave" unicode="&#x1e81;" horiz-adv-x="1479" 
 />
    <glyph glyph-name="Wacute" unicode="&#x1e82;" horiz-adv-x="1933" 
 />
    <glyph glyph-name="wacute" unicode="&#x1e83;" horiz-adv-x="1479" 
 />
    <glyph glyph-name="Wdieresis" unicode="&#x1e84;" horiz-adv-x="1933" 
 />
    <glyph glyph-name="wdieresis" unicode="&#x1e85;" horiz-adv-x="1479" 
 />
    <glyph glyph-name="Ygrave" unicode="&#x1ef2;" horiz-adv-x="1366" 
 />
    <glyph glyph-name="ygrave" unicode="&#x1ef3;" horiz-adv-x="1024" 
 />
    <glyph glyph-name="endash" unicode="&#x2013;" 
 />
    <glyph glyph-name="emdash" unicode="&#x2014;" horiz-adv-x="2048" 
 />
    <glyph glyph-name="afii00208" unicode="&#x2015;" horiz-adv-x="2048" 
 />
    <glyph glyph-name="underscoredbl" unicode="&#x2017;" horiz-adv-x="1131" 
 />
    <glyph glyph-name="quoteleft" unicode="&#x2018;" horiz-adv-x="455" 
 />
    <glyph glyph-name="quoteright" unicode="&#x2019;" horiz-adv-x="455" 
 />
    <glyph glyph-name="quotesinglbase" unicode="&#x201a;" horiz-adv-x="455" 
 />
    <glyph glyph-name="quotereversed" unicode="&#x201b;" horiz-adv-x="455" 
 />
    <glyph glyph-name="quotedblleft" unicode="&#x201c;" horiz-adv-x="682" 
 />
    <glyph glyph-name="quotedblright" unicode="&#x201d;" horiz-adv-x="682" 
 />
    <glyph glyph-name="quotedblbase" unicode="&#x201e;" horiz-adv-x="682" 
 />
    <glyph glyph-name="dagger" unicode="&#x2020;" 
 />
    <glyph glyph-name="daggerdbl" unicode="&#x2021;" 
 />
    <glyph glyph-name="bullet" unicode="&#x2022;" horiz-adv-x="717" 
 />
    <glyph glyph-name="ellipsis" unicode="&#x2026;" horiz-adv-x="2048" 
 />
    <glyph glyph-name="perthousand" unicode="&#x2030;" horiz-adv-x="2048" 
 />
    <glyph glyph-name="minute" unicode="&#x2032;" horiz-adv-x="384" 
 />
    <glyph glyph-name="second" unicode="&#x2033;" horiz-adv-x="725" 
 />
    <glyph glyph-name="guilsinglleft" unicode="&#x2039;" horiz-adv-x="682" 
 />
    <glyph glyph-name="guilsinglright" unicode="&#x203a;" horiz-adv-x="682" 
 />
    <glyph glyph-name="exclamdbl" unicode="&#x203c;" horiz-adv-x="1024" 
 />
    <glyph glyph-name="uni203E" unicode="&#x203e;" horiz-adv-x="682" 
 />
    <glyph glyph-name="fraction" unicode="&#x2044;" horiz-adv-x="342" 
 />
    <glyph glyph-name="fraction" unicode="&#x2215;" horiz-adv-x="342" 
 />
    <glyph glyph-name="uni207F" unicode="&#x207f;" horiz-adv-x="747" 
 />
    <glyph glyph-name="franc" unicode="&#x20a3;" 
 />
    <glyph glyph-name="lira" unicode="&#x20a4;" 
 />
    <glyph glyph-name="peseta" unicode="&#x20a7;" horiz-adv-x="2240" 
 />
    <glyph glyph-name="Euro" unicode="&#x20ac;" 
 />
    <glyph glyph-name="afii61248" unicode="&#x2105;" horiz-adv-x="1813" 
 />
    <glyph glyph-name="afii61289" unicode="&#x2113;" horiz-adv-x="662" 
 />
    <glyph glyph-name="afii61352" unicode="&#x2116;" horiz-adv-x="2197" 
 />
    <glyph glyph-name="trademark" unicode="&#x2122;" horiz-adv-x="2048" 
 />
    <glyph glyph-name="Omega" unicode="&#x2126;" horiz-adv-x="1573" 
 />
    <glyph glyph-name="estimated" unicode="&#x212e;" horiz-adv-x="1229" 
 />
    <glyph glyph-name="oneeighth" unicode="&#x215b;" horiz-adv-x="1708" 
 />
    <glyph glyph-name="threeeighths" unicode="&#x215c;" horiz-adv-x="1708" 
 />
    <glyph glyph-name="fiveeighths" unicode="&#x215d;" horiz-adv-x="1708" 
 />
    <glyph glyph-name="seveneighths" unicode="&#x215e;" horiz-adv-x="1708" 
 />
    <glyph glyph-name="arrowleft" unicode="&#x2190;" horiz-adv-x="2048" 
 />
    <glyph glyph-name="arrowup" unicode="&#x2191;" horiz-adv-x="1024" 
 />
    <glyph glyph-name="arrowright" unicode="&#x2192;" horiz-adv-x="2048" 
 />
    <glyph glyph-name="arrowdown" unicode="&#x2193;" horiz-adv-x="1024" 
 />
    <glyph glyph-name="arrowboth" unicode="&#x2194;" horiz-adv-x="2048" 
 />
    <glyph glyph-name="arrowupdn" unicode="&#x2195;" horiz-adv-x="1024" 
 />
    <glyph glyph-name="arrowupdnbse" unicode="&#x21a8;" horiz-adv-x="1024" 
 />
    <glyph glyph-name="partialdiff" unicode="&#x2202;" horiz-adv-x="1012" 
 />
    <glyph glyph-name="Delta" unicode="&#x2206;" horiz-adv-x="1253" 
 />
    <glyph glyph-name="product" unicode="&#x220f;" horiz-adv-x="1686" 
 />
    <glyph glyph-name="summation" unicode="&#x2211;" horiz-adv-x="1460" 
 />
    <glyph glyph-name="minus" unicode="&#x2212;" horiz-adv-x="1196" 
 />
    <glyph glyph-name="radical" unicode="&#x221a;" horiz-adv-x="1124" 
 />
    <glyph glyph-name="infinity" unicode="&#x221e;" horiz-adv-x="1460" 
 />
    <glyph glyph-name="orthogonal" unicode="&#x221f;" horiz-adv-x="2005" 
 />
    <glyph glyph-name="intersection" unicode="&#x2229;" horiz-adv-x="1472" 
 />
    <glyph glyph-name="integral" unicode="&#x222b;" horiz-adv-x="561" 
 />
    <glyph glyph-name="approxequal" unicode="&#x2248;" horiz-adv-x="1124" 
 />
    <glyph glyph-name="notequal" unicode="&#x2260;" horiz-adv-x="1124" 
 />
    <glyph glyph-name="equivalence" unicode="&#x2261;" horiz-adv-x="1195" 
 />
    <glyph glyph-name="lessequal" unicode="&#x2264;" horiz-adv-x="1124" 
 />
    <glyph glyph-name="greaterequal" unicode="&#x2265;" horiz-adv-x="1124" 
 />
    <glyph glyph-name="house" unicode="&#x2302;" horiz-adv-x="1237" 
 />
    <glyph glyph-name="revlogicalnot" unicode="&#x2310;" horiz-adv-x="1196" 
 />
    <glyph glyph-name="integraltp" unicode="&#x2320;" horiz-adv-x="1237" 
 />
    <glyph glyph-name="integralbt" unicode="&#x2321;" horiz-adv-x="1237" 
 />
    <glyph glyph-name="SF100000" unicode="&#x2500;" horiz-adv-x="1451" 
 />
    <glyph glyph-name="SF110000" unicode="&#x2502;" horiz-adv-x="1280" 
 />
    <glyph glyph-name="SF010000" unicode="&#x250c;" horiz-adv-x="1451" 
 />
    <glyph glyph-name="SF030000" unicode="&#x2510;" horiz-adv-x="1451" 
 />
    <glyph glyph-name="SF020000" unicode="&#x2514;" horiz-adv-x="1451" 
 />
    <glyph glyph-name="SF040000" unicode="&#x2518;" horiz-adv-x="1451" 
 />
    <glyph glyph-name="SF080000" unicode="&#x251c;" horiz-adv-x="1451" 
 />
    <glyph glyph-name="SF090000" unicode="&#x2524;" horiz-adv-x="1451" 
 />
    <glyph glyph-name="SF060000" unicode="&#x252c;" horiz-adv-x="1451" 
 />
    <glyph glyph-name="SF070000" unicode="&#x2534;" horiz-adv-x="1451" 
 />
    <glyph glyph-name="SF050000" unicode="&#x253c;" horiz-adv-x="1451" 
 />
    <glyph glyph-name="SF430000" unicode="&#x2550;" horiz-adv-x="1451" 
 />
    <glyph glyph-name="SF240000" unicode="&#x2551;" horiz-adv-x="1451" 
 />
    <glyph glyph-name="SF510000" unicode="&#x2552;" horiz-adv-x="1451" 
 />
    <glyph glyph-name="SF520000" unicode="&#x2553;" horiz-adv-x="1451" 
 />
    <glyph glyph-name="SF390000" unicode="&#x2554;" horiz-adv-x="1451" 
 />
    <glyph glyph-name="SF220000" unicode="&#x2555;" horiz-adv-x="1451" 
 />
    <glyph glyph-name="SF210000" unicode="&#x2556;" horiz-adv-x="1451" 
 />
    <glyph glyph-name="SF250000" unicode="&#x2557;" horiz-adv-x="1451" 
 />
    <glyph glyph-name="SF500000" unicode="&#x2558;" horiz-adv-x="1451" 
 />
    <glyph glyph-name="SF490000" unicode="&#x2559;" horiz-adv-x="1451" 
 />
    <glyph glyph-name="SF380000" unicode="&#x255a;" horiz-adv-x="1451" 
 />
    <glyph glyph-name="SF280000" unicode="&#x255b;" horiz-adv-x="1451" 
 />
    <glyph glyph-name="SF270000" unicode="&#x255c;" horiz-adv-x="1451" 
 />
    <glyph glyph-name="SF260000" unicode="&#x255d;" horiz-adv-x="1451" 
 />
    <glyph glyph-name="SF360000" unicode="&#x255e;" horiz-adv-x="1451" 
 />
    <glyph glyph-name="SF370000" unicode="&#x255f;" horiz-adv-x="1451" 
 />
    <glyph glyph-name="SF420000" unicode="&#x2560;" horiz-adv-x="1451" 
 />
    <glyph glyph-name="SF190000" unicode="&#x2561;" horiz-adv-x="1451" 
 />
    <glyph glyph-name="SF200000" unicode="&#x2562;" horiz-adv-x="1451" 
 />
    <glyph glyph-name="SF230000" unicode="&#x2563;" horiz-adv-x="1451" 
 />
    <glyph glyph-name="SF470000" unicode="&#x2564;" horiz-adv-x="1451" 
 />
    <glyph glyph-name="SF480000" unicode="&#x2565;" horiz-adv-x="1451" 
 />
    <glyph glyph-name="SF410000" unicode="&#x2566;" horiz-adv-x="1451" 
 />
    <glyph glyph-name="SF450000" unicode="&#x2567;" horiz-adv-x="1451" 
 />
    <glyph glyph-name="SF460000" unicode="&#x2568;" horiz-adv-x="1451" 
 />
    <glyph glyph-name="SF400000" unicode="&#x2569;" horiz-adv-x="1451" 
 />
    <glyph glyph-name="SF540000" unicode="&#x256a;" horiz-adv-x="1451" 
 />
    <glyph glyph-name="SF530000" unicode="&#x256b;" horiz-adv-x="1451" 
 />
    <glyph glyph-name="SF440000" unicode="&#x256c;" horiz-adv-x="1451" 
 />
    <glyph glyph-name="upblock" unicode="&#x2580;" horiz-adv-x="1451" 
 />
    <glyph glyph-name="dnblock" unicode="&#x2584;" horiz-adv-x="1451" 
 />
    <glyph glyph-name="block" unicode="&#x2588;" horiz-adv-x="1451" 
 />
    <glyph glyph-name="lfblock" unicode="&#x258c;" horiz-adv-x="1451" 
 />
    <glyph glyph-name="rtblock" unicode="&#x2590;" horiz-adv-x="1451" 
 />
    <glyph glyph-name="ltshade" unicode="&#x2591;" horiz-adv-x="1451" 
 />
    <glyph glyph-name="shade" unicode="&#x2592;" horiz-adv-x="1451" 
 />
    <glyph glyph-name="dkshade" unicode="&#x2593;" horiz-adv-x="1493" 
 />
    <glyph glyph-name="filledbox" unicode="&#x25a0;" horiz-adv-x="1237" 
 />
    <glyph glyph-name="H22073" unicode="&#x25a1;" horiz-adv-x="1237" 
 />
    <glyph glyph-name="H18543" unicode="&#x25aa;" horiz-adv-x="726" 
 />
    <glyph glyph-name="H18551" unicode="&#x25ab;" horiz-adv-x="726" 
 />
    <glyph glyph-name="filledrect" unicode="&#x25ac;" horiz-adv-x="2048" 
 />
    <glyph glyph-name="triagup" unicode="&#x25b2;" horiz-adv-x="2027" 
 />
    <glyph glyph-name="triagrt" unicode="&#x25ba;" horiz-adv-x="2027" 
 />
    <glyph glyph-name="triagdn" unicode="&#x25bc;" horiz-adv-x="2027" 
 />
    <glyph glyph-name="triaglf" unicode="&#x25c4;" horiz-adv-x="2027" 
 />
    <glyph glyph-name="lozenge" unicode="&#x25ca;" horiz-adv-x="1012" 
 />
    <glyph glyph-name="circle" unicode="&#x25cb;" horiz-adv-x="1237" 
 />
    <glyph glyph-name="H18533" unicode="&#x25cf;" horiz-adv-x="1237" 
 />
    <glyph glyph-name="invbullet" unicode="&#x25d8;" horiz-adv-x="1237" 
 />
    <glyph glyph-name="invcircle" unicode="&#x25d9;" horiz-adv-x="1237" 
 />
    <glyph glyph-name="openbullet" unicode="&#x25e6;" horiz-adv-x="726" 
 />
    <glyph glyph-name="smileface" unicode="&#x263a;" horiz-adv-x="2091" 
 />
    <glyph glyph-name="invsmileface" unicode="&#x263b;" horiz-adv-x="2155" 
 />
    <glyph glyph-name="sun" unicode="&#x263c;" horiz-adv-x="1877" 
 />
    <glyph glyph-name="female" unicode="&#x2640;" horiz-adv-x="1536" 
 />
    <glyph glyph-name="male" unicode="&#x2642;" horiz-adv-x="1536" 
 />
    <glyph glyph-name="spade" unicode="&#x2660;" horiz-adv-x="1088" 
 />
    <glyph glyph-name="club" unicode="&#x2663;" horiz-adv-x="1344" 
 />
    <glyph glyph-name="heart" unicode="&#x2665;" horiz-adv-x="1216" 
 />
    <glyph glyph-name="diamond" unicode="&#x2666;" horiz-adv-x="1045" 
 />
    <glyph glyph-name="musicalnote" unicode="&#x266a;" horiz-adv-x="1024" 
 />
    <glyph glyph-name="musicalnotedbl" unicode="&#x266b;" horiz-adv-x="1536" 
 />
    <glyph glyph-name="uniF001" unicode="&#xf001;" horiz-adv-x="1024" 
 />
    <glyph glyph-name="uniF001" unicode="&#xfb01;" horiz-adv-x="1024" 
 />
    <glyph glyph-name="uniF002" unicode="&#xf002;" horiz-adv-x="1024" 
 />
    <glyph glyph-name="uniF002" unicode="&#xfb02;" horiz-adv-x="1024" 
 />
    <glyph glyph-name="uniF004" unicode="&#xf004;" horiz-adv-x="682" 
 />
    <glyph glyph-name="uniF005" unicode="&#xf005;" horiz-adv-x="682" 
 />
    <glyph glyph-name="glyph155" horiz-adv-x="1124" 
 />
    </font>
</defs>
</svg>
